<mxfile host="app.diagrams.net" agent="Mozilla/5.0 (Windows NT 10.0; Win64; x64) AppleWebKit/537.36 (KHTML, like Gecko) Chrome/136.0.0.0 Safari/537.36" version="25.0.3">
  <diagram name="Page-1" id="3oFm6uYy-nrd6DYA5EvR">
    <mxGraphModel dx="2049" dy="1103" grid="1" gridSize="10" guides="1" tooltips="1" connect="1" arrows="1" fold="1" page="1" pageScale="1" pageWidth="850" pageHeight="1100" math="0" shadow="0">
      <root>
        <mxCell id="0" />
        <mxCell id="1" parent="0" />
        <mxCell id="ccl-ZEUmA6qkgp3fX_jC-2" value="Company Registration" style="swimlane;fontStyle=0;childLayout=stackLayout;horizontal=1;startSize=30;horizontalStack=0;resizeParent=1;resizeParentMax=0;resizeLast=0;collapsible=1;marginBottom=0;whiteSpace=wrap;html=1;" vertex="1" parent="1">
          <mxGeometry x="70" y="330" width="140" height="120" as="geometry">
            <mxRectangle x="60" y="380" width="160" height="30" as="alternateBounds" />
          </mxGeometry>
        </mxCell>
        <mxCell id="ccl-ZEUmA6qkgp3fX_jC-3" value="Company Logo" style="text;strokeColor=none;fillColor=none;align=left;verticalAlign=middle;spacingLeft=4;spacingRight=4;overflow=hidden;points=[[0,0.5],[1,0.5]];portConstraint=eastwest;rotatable=0;whiteSpace=wrap;html=1;" vertex="1" parent="ccl-ZEUmA6qkgp3fX_jC-2">
          <mxGeometry y="30" width="140" height="30" as="geometry" />
        </mxCell>
        <mxCell id="ccl-ZEUmA6qkgp3fX_jC-4" value="Address" style="text;strokeColor=none;fillColor=none;align=left;verticalAlign=middle;spacingLeft=4;spacingRight=4;overflow=hidden;points=[[0,0.5],[1,0.5]];portConstraint=eastwest;rotatable=0;whiteSpace=wrap;html=1;" vertex="1" parent="ccl-ZEUmA6qkgp3fX_jC-2">
          <mxGeometry y="60" width="140" height="30" as="geometry" />
        </mxCell>
        <mxCell id="ccl-ZEUmA6qkgp3fX_jC-5" value="Description" style="text;strokeColor=none;fillColor=none;align=left;verticalAlign=middle;spacingLeft=4;spacingRight=4;overflow=hidden;points=[[0,0.5],[1,0.5]];portConstraint=eastwest;rotatable=0;whiteSpace=wrap;html=1;" vertex="1" parent="ccl-ZEUmA6qkgp3fX_jC-2">
          <mxGeometry y="90" width="140" height="30" as="geometry" />
        </mxCell>
        <mxCell id="ccl-ZEUmA6qkgp3fX_jC-9" value="Company User Registration" style="swimlane;fontStyle=0;childLayout=stackLayout;horizontal=1;startSize=30;horizontalStack=0;resizeParent=1;resizeParentMax=0;resizeLast=0;collapsible=1;marginBottom=0;whiteSpace=wrap;html=1;" vertex="1" parent="1">
          <mxGeometry x="70" y="480" width="170" height="210" as="geometry">
            <mxRectangle x="60" y="380" width="160" height="30" as="alternateBounds" />
          </mxGeometry>
        </mxCell>
        <mxCell id="ccl-ZEUmA6qkgp3fX_jC-10" value="Profile Picture" style="text;strokeColor=none;fillColor=none;align=left;verticalAlign=middle;spacingLeft=4;spacingRight=4;overflow=hidden;points=[[0,0.5],[1,0.5]];portConstraint=eastwest;rotatable=0;whiteSpace=wrap;html=1;" vertex="1" parent="ccl-ZEUmA6qkgp3fX_jC-9">
          <mxGeometry y="30" width="170" height="30" as="geometry" />
        </mxCell>
        <mxCell id="ccl-ZEUmA6qkgp3fX_jC-11" value="First name" style="text;strokeColor=none;fillColor=none;align=left;verticalAlign=middle;spacingLeft=4;spacingRight=4;overflow=hidden;points=[[0,0.5],[1,0.5]];portConstraint=eastwest;rotatable=0;whiteSpace=wrap;html=1;" vertex="1" parent="ccl-ZEUmA6qkgp3fX_jC-9">
          <mxGeometry y="60" width="170" height="30" as="geometry" />
        </mxCell>
        <mxCell id="ccl-ZEUmA6qkgp3fX_jC-12" value="Middle n&lt;span style=&quot;background-color: initial;&quot;&gt;ame&lt;/span&gt;" style="text;strokeColor=none;fillColor=none;align=left;verticalAlign=middle;spacingLeft=4;spacingRight=4;overflow=hidden;points=[[0,0.5],[1,0.5]];portConstraint=eastwest;rotatable=0;whiteSpace=wrap;html=1;" vertex="1" parent="ccl-ZEUmA6qkgp3fX_jC-9">
          <mxGeometry y="90" width="170" height="30" as="geometry" />
        </mxCell>
        <mxCell id="ccl-ZEUmA6qkgp3fX_jC-20" value="Last Name" style="text;strokeColor=none;fillColor=none;align=left;verticalAlign=middle;spacingLeft=4;spacingRight=4;overflow=hidden;points=[[0,0.5],[1,0.5]];portConstraint=eastwest;rotatable=0;whiteSpace=wrap;html=1;" vertex="1" parent="ccl-ZEUmA6qkgp3fX_jC-9">
          <mxGeometry y="120" width="170" height="30" as="geometry" />
        </mxCell>
        <mxCell id="ccl-ZEUmA6qkgp3fX_jC-28" value="Email" style="text;strokeColor=none;fillColor=none;align=left;verticalAlign=middle;spacingLeft=4;spacingRight=4;overflow=hidden;points=[[0,0.5],[1,0.5]];portConstraint=eastwest;rotatable=0;whiteSpace=wrap;html=1;" vertex="1" parent="ccl-ZEUmA6qkgp3fX_jC-9">
          <mxGeometry y="150" width="170" height="30" as="geometry" />
        </mxCell>
        <mxCell id="ccl-ZEUmA6qkgp3fX_jC-18" value="Pref. Password" style="text;strokeColor=none;fillColor=none;align=left;verticalAlign=middle;spacingLeft=4;spacingRight=4;overflow=hidden;points=[[0,0.5],[1,0.5]];portConstraint=eastwest;rotatable=0;whiteSpace=wrap;html=1;" vertex="1" parent="ccl-ZEUmA6qkgp3fX_jC-9">
          <mxGeometry y="180" width="170" height="30" as="geometry" />
        </mxCell>
        <mxCell id="ccl-ZEUmA6qkgp3fX_jC-38" value="Peso Admin Registration" style="swimlane;fontStyle=0;childLayout=stackLayout;horizontal=1;startSize=30;horizontalStack=0;resizeParent=1;resizeParentMax=0;resizeLast=0;collapsible=1;marginBottom=0;whiteSpace=wrap;html=1;" vertex="1" parent="1">
          <mxGeometry x="70" y="80" width="170" height="210" as="geometry">
            <mxRectangle x="60" y="380" width="160" height="30" as="alternateBounds" />
          </mxGeometry>
        </mxCell>
        <mxCell id="ccl-ZEUmA6qkgp3fX_jC-39" value="Profile Picture" style="text;strokeColor=none;fillColor=none;align=left;verticalAlign=middle;spacingLeft=4;spacingRight=4;overflow=hidden;points=[[0,0.5],[1,0.5]];portConstraint=eastwest;rotatable=0;whiteSpace=wrap;html=1;" vertex="1" parent="ccl-ZEUmA6qkgp3fX_jC-38">
          <mxGeometry y="30" width="170" height="30" as="geometry" />
        </mxCell>
        <mxCell id="ccl-ZEUmA6qkgp3fX_jC-40" value="First name" style="text;strokeColor=none;fillColor=none;align=left;verticalAlign=middle;spacingLeft=4;spacingRight=4;overflow=hidden;points=[[0,0.5],[1,0.5]];portConstraint=eastwest;rotatable=0;whiteSpace=wrap;html=1;" vertex="1" parent="ccl-ZEUmA6qkgp3fX_jC-38">
          <mxGeometry y="60" width="170" height="30" as="geometry" />
        </mxCell>
        <mxCell id="ccl-ZEUmA6qkgp3fX_jC-41" value="Middle n&lt;span style=&quot;background-color: initial;&quot;&gt;ame&lt;/span&gt;" style="text;strokeColor=none;fillColor=none;align=left;verticalAlign=middle;spacingLeft=4;spacingRight=4;overflow=hidden;points=[[0,0.5],[1,0.5]];portConstraint=eastwest;rotatable=0;whiteSpace=wrap;html=1;" vertex="1" parent="ccl-ZEUmA6qkgp3fX_jC-38">
          <mxGeometry y="90" width="170" height="30" as="geometry" />
        </mxCell>
        <mxCell id="ccl-ZEUmA6qkgp3fX_jC-42" value="Last Name" style="text;strokeColor=none;fillColor=none;align=left;verticalAlign=middle;spacingLeft=4;spacingRight=4;overflow=hidden;points=[[0,0.5],[1,0.5]];portConstraint=eastwest;rotatable=0;whiteSpace=wrap;html=1;" vertex="1" parent="ccl-ZEUmA6qkgp3fX_jC-38">
          <mxGeometry y="120" width="170" height="30" as="geometry" />
        </mxCell>
        <mxCell id="ccl-ZEUmA6qkgp3fX_jC-43" value="Email" style="text;strokeColor=none;fillColor=none;align=left;verticalAlign=middle;spacingLeft=4;spacingRight=4;overflow=hidden;points=[[0,0.5],[1,0.5]];portConstraint=eastwest;rotatable=0;whiteSpace=wrap;html=1;" vertex="1" parent="ccl-ZEUmA6qkgp3fX_jC-38">
          <mxGeometry y="150" width="170" height="30" as="geometry" />
        </mxCell>
        <mxCell id="ccl-ZEUmA6qkgp3fX_jC-44" value="Pref. Password" style="text;strokeColor=none;fillColor=none;align=left;verticalAlign=middle;spacingLeft=4;spacingRight=4;overflow=hidden;points=[[0,0.5],[1,0.5]];portConstraint=eastwest;rotatable=0;whiteSpace=wrap;html=1;" vertex="1" parent="ccl-ZEUmA6qkgp3fX_jC-38">
          <mxGeometry y="180" width="170" height="30" as="geometry" />
        </mxCell>
        <mxCell id="ccl-ZEUmA6qkgp3fX_jC-53" style="edgeStyle=orthogonalEdgeStyle;rounded=0;orthogonalLoop=1;jettySize=auto;html=1;exitX=1;exitY=0.5;exitDx=0;exitDy=0;entryX=0;entryY=0.5;entryDx=0;entryDy=0;" edge="1" parent="1" source="ccl-ZEUmA6qkgp3fX_jC-46" target="ccl-ZEUmA6qkgp3fX_jC-48">
          <mxGeometry relative="1" as="geometry" />
        </mxCell>
        <mxCell id="ccl-ZEUmA6qkgp3fX_jC-46" value="Posting Schedule of Job Fair" style="rounded=1;whiteSpace=wrap;html=1;" vertex="1" parent="1">
          <mxGeometry x="300" y="155" width="120" height="60" as="geometry" />
        </mxCell>
        <mxCell id="ccl-ZEUmA6qkgp3fX_jC-47" style="edgeStyle=orthogonalEdgeStyle;rounded=0;orthogonalLoop=1;jettySize=auto;html=1;exitX=1;exitY=0.5;exitDx=0;exitDy=0;entryX=0;entryY=0.5;entryDx=0;entryDy=0;" edge="1" parent="1" source="ccl-ZEUmA6qkgp3fX_jC-41" target="ccl-ZEUmA6qkgp3fX_jC-46">
          <mxGeometry relative="1" as="geometry" />
        </mxCell>
        <mxCell id="ccl-ZEUmA6qkgp3fX_jC-48" value="Job Fair Schedules" style="whiteSpace=wrap;html=1;aspect=fixed;" vertex="1" parent="1">
          <mxGeometry x="500" y="135" width="100" height="100" as="geometry" />
        </mxCell>
        <mxCell id="ccl-ZEUmA6qkgp3fX_jC-78" style="edgeStyle=orthogonalEdgeStyle;rounded=0;orthogonalLoop=1;jettySize=auto;html=1;entryX=0.5;entryY=1;entryDx=0;entryDy=0;" edge="1" parent="1" source="ccl-ZEUmA6qkgp3fX_jC-54" target="ccl-ZEUmA6qkgp3fX_jC-76">
          <mxGeometry relative="1" as="geometry" />
        </mxCell>
        <mxCell id="ccl-ZEUmA6qkgp3fX_jC-63" value="" style="rounded=0;whiteSpace=wrap;html=1;fillColor=none;" vertex="1" parent="1">
          <mxGeometry x="50" y="320" width="250" height="390" as="geometry" />
        </mxCell>
        <mxCell id="ccl-ZEUmA6qkgp3fX_jC-54" value="Join Job Fair?" style="rhombus;whiteSpace=wrap;html=1;" vertex="1" parent="1">
          <mxGeometry x="415" y="450" width="120" height="110" as="geometry" />
        </mxCell>
        <mxCell id="ccl-ZEUmA6qkgp3fX_jC-65" style="edgeStyle=orthogonalEdgeStyle;rounded=0;orthogonalLoop=1;jettySize=auto;html=1;exitX=1;exitY=0.5;exitDx=0;exitDy=0;entryX=0;entryY=0.5;entryDx=0;entryDy=0;" edge="1" parent="1" source="ccl-ZEUmA6qkgp3fX_jC-63" target="ccl-ZEUmA6qkgp3fX_jC-54">
          <mxGeometry relative="1" as="geometry" />
        </mxCell>
        <mxCell id="ccl-ZEUmA6qkgp3fX_jC-68" style="edgeStyle=orthogonalEdgeStyle;rounded=0;orthogonalLoop=1;jettySize=auto;html=1;exitX=1;exitY=0.5;exitDx=0;exitDy=0;entryX=0.5;entryY=1;entryDx=0;entryDy=0;" edge="1" parent="1" source="ccl-ZEUmA6qkgp3fX_jC-54" target="ccl-ZEUmA6qkgp3fX_jC-54">
          <mxGeometry relative="1" as="geometry" />
        </mxCell>
        <mxCell id="ccl-ZEUmA6qkgp3fX_jC-71" value="NO" style="edgeLabel;html=1;align=center;verticalAlign=middle;resizable=0;points=[];" vertex="1" connectable="0" parent="ccl-ZEUmA6qkgp3fX_jC-68">
          <mxGeometry x="-0.691" y="-1" relative="1" as="geometry">
            <mxPoint as="offset" />
          </mxGeometry>
        </mxCell>
        <mxCell id="ccl-ZEUmA6qkgp3fX_jC-70" value="yes&lt;div&gt;&lt;br&gt;&lt;/div&gt;" style="text;html=1;align=center;verticalAlign=middle;resizable=0;points=[];autosize=1;strokeColor=none;fillColor=none;" vertex="1" parent="1">
          <mxGeometry x="470" y="423" width="40" height="40" as="geometry" />
        </mxCell>
        <mxCell id="ccl-ZEUmA6qkgp3fX_jC-86" style="edgeStyle=orthogonalEdgeStyle;rounded=0;orthogonalLoop=1;jettySize=auto;html=1;exitX=1;exitY=0.5;exitDx=0;exitDy=0;" edge="1" parent="1" source="ccl-ZEUmA6qkgp3fX_jC-76" target="ccl-ZEUmA6qkgp3fX_jC-85">
          <mxGeometry relative="1" as="geometry" />
        </mxCell>
        <mxCell id="ccl-ZEUmA6qkgp3fX_jC-76" value="Select from available job fair schedules" style="rounded=1;whiteSpace=wrap;html=1;" vertex="1" parent="1">
          <mxGeometry x="415" y="310" width="120" height="60" as="geometry" />
        </mxCell>
        <mxCell id="ccl-ZEUmA6qkgp3fX_jC-85" value="Input all available positions" style="rounded=1;whiteSpace=wrap;html=1;" vertex="1" parent="1">
          <mxGeometry x="600" y="310" width="160" height="60" as="geometry" />
        </mxCell>
        <mxCell id="ccl-ZEUmA6qkgp3fX_jC-87" value="inputs" style="swimlane;fontStyle=0;childLayout=stackLayout;horizontal=1;startSize=30;horizontalStack=0;resizeParent=1;resizeParentMax=0;resizeLast=0;collapsible=1;marginBottom=0;whiteSpace=wrap;html=1;" vertex="1" parent="1">
          <mxGeometry x="610" y="390" width="140" height="120" as="geometry" />
        </mxCell>
        <mxCell id="ccl-ZEUmA6qkgp3fX_jC-88" value="Skills required" style="text;strokeColor=none;fillColor=none;align=left;verticalAlign=middle;spacingLeft=4;spacingRight=4;overflow=hidden;points=[[0,0.5],[1,0.5]];portConstraint=eastwest;rotatable=0;whiteSpace=wrap;html=1;" vertex="1" parent="ccl-ZEUmA6qkgp3fX_jC-87">
          <mxGeometry y="30" width="140" height="30" as="geometry" />
        </mxCell>
        <mxCell id="ccl-ZEUmA6qkgp3fX_jC-89" value="Required experience" style="text;strokeColor=none;fillColor=none;align=left;verticalAlign=middle;spacingLeft=4;spacingRight=4;overflow=hidden;points=[[0,0.5],[1,0.5]];portConstraint=eastwest;rotatable=0;whiteSpace=wrap;html=1;" vertex="1" parent="ccl-ZEUmA6qkgp3fX_jC-87">
          <mxGeometry y="60" width="140" height="30" as="geometry" />
        </mxCell>
        <mxCell id="ccl-ZEUmA6qkgp3fX_jC-91" value="Course" style="text;strokeColor=none;fillColor=none;align=left;verticalAlign=middle;spacingLeft=4;spacingRight=4;overflow=hidden;points=[[0,0.5],[1,0.5]];portConstraint=eastwest;rotatable=0;whiteSpace=wrap;html=1;" vertex="1" parent="ccl-ZEUmA6qkgp3fX_jC-87">
          <mxGeometry y="90" width="140" height="30" as="geometry" />
        </mxCell>
        <mxCell id="ccl-ZEUmA6qkgp3fX_jC-92" value="" style="rounded=0;whiteSpace=wrap;html=1;fillColor=none;" vertex="1" parent="1">
          <mxGeometry x="580" y="280" width="210" height="260" as="geometry" />
        </mxCell>
        <mxCell id="ccl-ZEUmA6qkgp3fX_jC-113" value="Job seeker registration" style="swimlane;fontStyle=0;childLayout=stackLayout;horizontal=1;startSize=30;horizontalStack=0;resizeParent=1;resizeParentMax=0;resizeLast=0;collapsible=1;marginBottom=0;whiteSpace=wrap;html=1;" vertex="1" parent="1">
          <mxGeometry x="330" y="790" width="170" height="210" as="geometry">
            <mxRectangle x="60" y="380" width="160" height="30" as="alternateBounds" />
          </mxGeometry>
        </mxCell>
        <mxCell id="ccl-ZEUmA6qkgp3fX_jC-114" value="Profile Picture" style="text;strokeColor=none;fillColor=none;align=left;verticalAlign=middle;spacingLeft=4;spacingRight=4;overflow=hidden;points=[[0,0.5],[1,0.5]];portConstraint=eastwest;rotatable=0;whiteSpace=wrap;html=1;" vertex="1" parent="ccl-ZEUmA6qkgp3fX_jC-113">
          <mxGeometry y="30" width="170" height="30" as="geometry" />
        </mxCell>
        <mxCell id="ccl-ZEUmA6qkgp3fX_jC-115" value="First name" style="text;strokeColor=none;fillColor=none;align=left;verticalAlign=middle;spacingLeft=4;spacingRight=4;overflow=hidden;points=[[0,0.5],[1,0.5]];portConstraint=eastwest;rotatable=0;whiteSpace=wrap;html=1;" vertex="1" parent="ccl-ZEUmA6qkgp3fX_jC-113">
          <mxGeometry y="60" width="170" height="30" as="geometry" />
        </mxCell>
        <mxCell id="ccl-ZEUmA6qkgp3fX_jC-116" value="Middle n&lt;span style=&quot;background-color: initial;&quot;&gt;ame&lt;/span&gt;" style="text;strokeColor=none;fillColor=none;align=left;verticalAlign=middle;spacingLeft=4;spacingRight=4;overflow=hidden;points=[[0,0.5],[1,0.5]];portConstraint=eastwest;rotatable=0;whiteSpace=wrap;html=1;" vertex="1" parent="ccl-ZEUmA6qkgp3fX_jC-113">
          <mxGeometry y="90" width="170" height="30" as="geometry" />
        </mxCell>
        <mxCell id="ccl-ZEUmA6qkgp3fX_jC-117" value="Last Name" style="text;strokeColor=none;fillColor=none;align=left;verticalAlign=middle;spacingLeft=4;spacingRight=4;overflow=hidden;points=[[0,0.5],[1,0.5]];portConstraint=eastwest;rotatable=0;whiteSpace=wrap;html=1;" vertex="1" parent="ccl-ZEUmA6qkgp3fX_jC-113">
          <mxGeometry y="120" width="170" height="30" as="geometry" />
        </mxCell>
        <mxCell id="ccl-ZEUmA6qkgp3fX_jC-118" value="Skills" style="text;strokeColor=none;fillColor=none;align=left;verticalAlign=middle;spacingLeft=4;spacingRight=4;overflow=hidden;points=[[0,0.5],[1,0.5]];portConstraint=eastwest;rotatable=0;whiteSpace=wrap;html=1;" vertex="1" parent="ccl-ZEUmA6qkgp3fX_jC-113">
          <mxGeometry y="150" width="170" height="30" as="geometry" />
        </mxCell>
        <mxCell id="ccl-ZEUmA6qkgp3fX_jC-119" value="Experience" style="text;strokeColor=none;fillColor=none;align=left;verticalAlign=middle;spacingLeft=4;spacingRight=4;overflow=hidden;points=[[0,0.5],[1,0.5]];portConstraint=eastwest;rotatable=0;whiteSpace=wrap;html=1;" vertex="1" parent="ccl-ZEUmA6qkgp3fX_jC-113">
          <mxGeometry y="180" width="170" height="30" as="geometry" />
        </mxCell>
        <mxCell id="ccl-ZEUmA6qkgp3fX_jC-121" style="edgeStyle=orthogonalEdgeStyle;rounded=0;orthogonalLoop=1;jettySize=auto;html=1;entryX=0;entryY=0.5;entryDx=0;entryDy=0;" edge="1" parent="1" source="ccl-ZEUmA6qkgp3fX_jC-120" target="ccl-ZEUmA6qkgp3fX_jC-116">
          <mxGeometry relative="1" as="geometry" />
        </mxCell>
        <mxCell id="ccl-ZEUmA6qkgp3fX_jC-120" value="Select from available job fair schedules" style="rounded=1;whiteSpace=wrap;html=1;" vertex="1" parent="1">
          <mxGeometry x="90" y="865" width="120" height="60" as="geometry" />
        </mxCell>
        <mxCell id="ccl-ZEUmA6qkgp3fX_jC-127" style="edgeStyle=orthogonalEdgeStyle;rounded=0;orthogonalLoop=1;jettySize=auto;html=1;" edge="1" parent="1" source="ccl-ZEUmA6qkgp3fX_jC-122" target="ccl-ZEUmA6qkgp3fX_jC-126">
          <mxGeometry relative="1" as="geometry" />
        </mxCell>
        <mxCell id="ccl-ZEUmA6qkgp3fX_jC-122" value="Comparing job seeker skills and experience to the companies joined on the select job fair schedule" style="rounded=1;whiteSpace=wrap;html=1;" vertex="1" parent="1">
          <mxGeometry x="580" y="845" width="160" height="100" as="geometry" />
        </mxCell>
        <mxCell id="ccl-ZEUmA6qkgp3fX_jC-123" style="edgeStyle=orthogonalEdgeStyle;rounded=0;orthogonalLoop=1;jettySize=auto;html=1;exitX=1;exitY=0.5;exitDx=0;exitDy=0;entryX=0;entryY=0.5;entryDx=0;entryDy=0;" edge="1" parent="1" source="ccl-ZEUmA6qkgp3fX_jC-116" target="ccl-ZEUmA6qkgp3fX_jC-122">
          <mxGeometry relative="1" as="geometry" />
        </mxCell>
        <mxCell id="ccl-ZEUmA6qkgp3fX_jC-124" value="" style="shape=image;verticalLabelPosition=bottom;labelBackgroundColor=default;verticalAlign=top;aspect=fixed;imageAspect=0;image=data:image/png,iVBORw0KGgoAAAANSUhEUgAAAN0AAAB8CAYAAADthLVRAAAAAXNSR0IArs4c6QAAAARnQU1BAACxjwv8YQUAAAAJcEhZcwAADsMAAA7DAcdvqGQAAErfSURBVHhe7b13mBRV3v79qequjhMZ8pCTICCCec0Js5jDGtbAGtesIEZURMw5YQ5rWCNmUEExgKIgkoPEybGnY+Xz/lE9wzBMV4/PsuzzPr/+eHFdTtdd+XtOVZ37nO+RhBCCHDly7DDktj+0pSNlcntqsqmEEGTb1PbVuItymv9NGkeXjR2taauS3VZUNZ2KmgbXjWu6QUV1A7aLRjdMyqrqsSy77aIWDNOkrLIOy7TaLmrBtCzKKuswTbPtohZs26a8uh7dMNouakEIQWVNA5qut13UghCCqtpGVM1dU10XIaW6a2rrm0iktLaLWhBCUNcYJZ5U2y5qQQhBQyRGLJFqu6gFIQSNTXGisWTbRS0IIYhEE0SiibaLWhBC0BRL0tgUb7uoBSEEsXiK+kis7aIWhIB4UqWuIdp20VYkUio19U1tf96KpKpRXRdxrShVTaOqttE1XlVNp7LGXdMc024a3TAor6rHsjsQ09bWMe36pJMkCcXrdT1RSZJQFI9zhTMgAT7F2/bnrZCQ8PncNQA+n9L2p60Q6X1JbRe0QgiBoniRXFRC4GikjmjaLtmCALxeD7KbCPB6PK77AvB0SCMjydk1sux66zukkT0yHleNQJYlPJ7MGiEEsizj9cgZQ0gIkCU5vZ0MonQsej2etj9vhSRJeL2ejPsCkCRQlCwaJBTF63Y46ZhWttFIuW+6HDl2LJmroBw5cvxHyBW6HDl2MLlClyPHDiZX6HLk2MHkCl2OHDuYrIWuI42bO1qTTSU6bHy3/XVrOq5xF+U02TTZ731HNPyJGMrGf1Ljao5rmk5VbaTdFZvRdYPK2kZXc9wwTCpqGlyNRNO0KK9uwGxjJLbGsiwqqhuymuOVNY0YRmaNEIKq2gi67m6g19RFUDUN09BJxGPEYs4/zbBagqC2oSmrOV7XGCWZwRzXUkk0XacuEiOR0RwXaGqK8soaGrOY2pFogljc3UBviiVpamWgJ+OJra67SBvf2Qz0eCLlbqADiaTqaqADJFPZDfSUqlFT3+RaCaZUnZq6Jtd4VTWdqjr3mNZ0I6vJrqdj2naJacNMx+ufMceRJCTJqWXckLOIRFrjdhICkGXJbTMd04i0xuV5KIRj2rprQJJlbENjxeyXueT6m7lryhRuvPpKnpvxK4ZlYds2wraxLKvl3GzbxrYtLMvCFluW2eka30rrLctGCFj5yqU8/fnPWOl1LcvapnIStsEPr97DVbc8wR9JvWWflmUjACHs9H7t9D4s7JZ9ONrm/W+5BwJhO8fw1JXj2JBMYgvR6tib9XbmCjWLUY8QWc18IYTTe8IlhIRwljtbyiBqxn13kJZk2lczUpZ4pSWm2/7aGifO2h5yzhzPghrZwINXXctJU55ncI98zMRqXnptJeePPw6jqYyV6yoxvSEGDRtOp6CHVWvWk+9NsqlWY/DwYdT8sYKklM+wYQPw6bWsrTaxIuUkRD677jqM3x8/k+/6Xs7l4/5CdPNa1lY0kt+lH8MHl+JJB5BWu4Ibr70eea+rmHD+/njrN7NqUzXecFd2GTEIUtVUNKgkYzpdexRSE5Ow6jag+joxrHeIJSs20qnPUAZ1C1NTthF/zwF0UiSq1q5A6T2SJ8/bmzOmf0F/v83q5WtoUgVd+wxhYGkRau06yrQSBvUqwpOlp0uOjuH+pMuBRymifzeNR2csoDYSx/IP4u+XnohfSnDZpddRIXUmunwmZ138DJFkgrsvH8cbP8dJ/P4mp593IRuTXr55bRpPfr2ZuhXvcdKxl1Lr78aKD+7mslfWkNJtEBbr5r7J2Zc/SrfSbrw64Wxe/ake007Xh4ESOhcE6dq3H3rlGk4+6w583Qew8bMHuOiFJdRUzeXqcy7n2w0p1i+ew1kn/pVkoDPP33Qh19z/Bl3ydP5x7k0sr6xmxpP3Mr8uhqmrfHz/JL7dJHB2I5j9yHV8tLiBLkoDl5w+jjU1GpvnvsTTHy5x7Teb48+RK3RZ8AbzGXfTy/xtFw8fvvAw5//tNG5+/ms0Qjz98kv8ZUARA0fsSrByATFdQuTtwRkn7c6w3Q4m1m0cuw8fwMhBfflj1WqQZPqPG8/+O/Vm3KmnsvrDj4nrBpgpfpi/gAMuuYyw4ufS8w/mk48+b+ko6/P78QVCBBSJ1PIPGDH+Snbp04VjTzuRdR+/RiKVosth53PaQUMJ+310OW4CowZ0Z/9hXRlxxHhK+w6ih7KemhrVeYW1BQiwbcspcAJA4sArH+PS43cn3GUgZ47UqYumGHLi7dx76b4o3lyobC9yVzILlmXh8YfZdc/9OPfyG3j28Qeo/fQRquvKefSuKbzwxvt8Ous7dGFhIyH5w4R9Cn7Fi7e4Ez7FhyRJWIaBJEnkFeThU7yEwyEMrT5dAGy0VJy182fxxcxZfFvTjdMPHd7SmViSnc7HkiQh2Rq+gIJP8RIIhkCrx7YFnTsVoSgKHo+HYEE+Pq8XxSMTzs9D8SkIYTr7SiMQpFqPsrBUvnrpER54/FU++fRzfq8T2DbIXh9+JXtH6xwdJ1fosmDWLuOai65kwcoy4skUtZtX0WSVoCTK+Kq2K8ccNZbdBnclZarpVkyn8Wkr0p/NwrZYOu87Ntc1sez3xZQM24ug4gGPjyGDB+ItGMqhRx7F3iMHMaBPr20DXVYID92Hld/8TGVDE78vWEDxkEPx+5wRE5LU3NrQvF76t+a/PAqhgiAbN1TTUL2OX8qqW5ZhG7z75a+MGXskB+8zErvRIh6P0bDuF+Ytq8LMvV5uN3KFLgueTkO4adLfeP3eG7j4oouY/PjX/OOB+ynoMoRzS1cxacKN/C6N5LRhSR7+YgOlvUvxAEq4iF6d8/B5PRSWdKZ7l0IAdhrShcduuZRpH5bx5OQj6N6rL52KO7Pn8ZdwvH8OV15+OQ+8s5iSLkVbCq/kpXPXbnQuzqdT74O4YY9yrr7oQh6Zo/LU1JMo7tSNkuIwiiwRChdQ2qUAySNT2L03RUEZ2eOjtLSUoqIiDjnxJL6551quuO9jRg8fTaEfevTtRyAQ5oZLx/LPeyby9Bfruewfx/LYra+wZuW3fLlgc5ZWuhx/hqytl6KDzb7/2zRIbqPl0pr2nkqtaL40tmWiaxq6aSPLHoLhEB7J8c4MU+DxePDIEoYt8ErgDwYRpo4pnDFglmkiTJXGVW9w7ZeDeO6yPbHxEgoFsHQdyeNB9siYuo6mG8gehVAoSEtjobDRDROBhOL1YJs6SVVH8vgIB/3Ylo6QPMgeD8KyME0Lv9+HqavgDeCVbTTdcsbjCQtN07CEhF/xIPuCmGoKn9+HbRnouokky3g8HnTNIBBUsISn3VfM5uvT9vfWOBL3e+ZI3DX8iXv/v13jbo7rRtqQzKzRDTM9ojezxjBNqmoj2/hPrTFNi8raxm2MxNZYlk1VbSOGy+hy27aprotkNcdr6puyji6vbYii6QYer0IwnEdhYQH5+WG8soQkyfgDIVTDQpI9+AMB8kJBAsEgEs63kE/xIksSsYSKhUy4576cfdBAwnkF5OeF8MgyvkAAr9dLUzSJaUsUFBSQF25V4AAkGUVRSKY0kikNry9AQUEB+eEAsizhVfwoXi8yEE9qGKaFJEko/iCKR0KSPAT8PhSvB49XwRQeBDL+QBBFhmAoiMfjQfEFCOflEQwG0Q0LCwlF8RPwbTuYVwjH+HYz0Ekb324GOkAqpWU10FOqRl1j1PWJq2o6tQ1R11jsWEwb2WPaMKmqi7ia46ZpUVXbuE3Lr+vrpUibuS77RgiBbbt39RECbOEYt5kQiLS523bJFjq8r6waZzt2q4aFtgjhmMfumuZtZb7wzrkLbOEhv9tIjt6zf1sJgrTGZTu03I/Mx8Of0GTbV/bjcQx/t4pUtOoQkIkWTbqzQHs4GqfS3cZpTiOazz3Lt2fzuWfaF833LFsMpSt4F0nLvWjbuSDr62WOHDm2L65Puhw5cmx//keFzjZUlr59C5/+WtbyeDWTTTz4xLts2vArD93/ONW1jdx8x0u0l5dK2Cb1m5dx0/M/omlJ3nn8JsaPH8/E+96gNqaiJhr54vm7uHD8pTz+6RJ006Zm2WyuuvJq7nr9Z+KqgW2mWD3vI76rTmJbJl++9DQ/VWpbenH8m0TWfMyzM34hlfnT8D+GbVl8/c8H+HKdhbV9TqcFI5Xg1xmPs7C8nodvu4ILxo9n/PjxXHXdK0Q0jUjZYu6+9mIuufxaFm2ow7ZNvn3zQa6+fgLzNjViWAI1XsvHzzxEQrcwa3/l6ZdnoZtWhhe/HYHA0FX+9cijrIgYrPzuLS69eDyX3jiNpeVNmKZOU9mPXHXJeC676X7WRTTUWC1P3TaRq257grUNCRAWWqqC6e/NBaBs0Se8+EsdqpG5/eB/SgcLnUBTk8SiURLJFLquUb/2J9ZVxQCbVCqFZdscd+ReSPEaFi9aQiyp8uNPSzERaKmEs25KxbRsUtEK3nzwQU47agjrZtzN7OQu3HrbzYyIfcC7P6/m1xnP8X5Zb26ZdDXmR9fz3s9lfPLxXC69bRLd597IyoooTWVLef3TZeySryBJEnsftDPP3DoNTdPTN19gmobzt22jq0k0w+kArGk6pmGgqSlisRiJZArLFghLJ5VSiSdV4rVrWbq+GsO0MQ0DVdOxTZ1YtIloNI5hWggEhqYSj8WIJ1KYlu20LGoGQgh0TcUwdDRdJ5FIkIg7IwkEgLBJJuJEYzFU3cC2LUxDJ5lSSaRUhu1xGCNLANtCTSaIxeKkNN3pRG3qpFSNeNRJ22fZNrZloiYTRGNxUpoBQjjHG4sSS6ScBirbZMMvn/L4/C70Cnn55bcUV9x5J3fedRe33HQifj3OS489R/cjLua6v4/j5gl3szmxgTk/aNw4/mQmP/IlTYk4y+d8zG8lh+DzylC4M97VM3j7d6dAbgkZG0NXiUWjxBMpnD4A5pZz1nQsy8TQtZb11FQK23ZaV5PxBJqmYRg68ViUaCyOnu7gbeoq8fS1NCwb29Co/mk6i5VB9IrMY8K0H7nkups4c5TJ00//i9rKDVxxxr0cc+lELjmkgFtvfoqKNXPgwHM5f0/BKx8uIpWM8smUyfTfeSgA3QeO5vcp57CirAH3r8Q/j2fy5MmT2/7YFi1azTPT7uCNj77g2x8X03nQzhhL3qe86xHsFCjjvimPM3LPMdx2z5uMHlXM99+vYL9DDmbGjG8585TRPH/3Tbzz+Td89sX39NllNMmlX/LSyn6cN253ug7ei/12HYxkq1Qv/Z5U6W6s+nY2u5x0AfsM7srOnRt4dp5JV30jQ3bfh/Lv36Fg5BEsmfUR/cddxLDu+XhkCSW/Bw3fv0L9LkfRP9+HR4Kls17h3nkyhwwv4sGrz+JndTh7D5K45+SzKBo1ko9eepTXPvicr+b+RLeBIyjeNINzbn6LuT/NY3RfiZ+rSth7SCGfP3c367rsQdPXj3LP8x8z58vPqQ0NZ2CJycwXH+GJ199n1pffUjRgVwqqZnHjk/M49C+D+Xn61Xyb7M9vb93NW/M3M/ODN3nv88UM32svkmvncuc9DzNr5icsrvIwbGB3lr55Gx/M+46PVwWIf/8Eq7ofT+/Ubzxw3wN8+Mkn/LQ6wsjhA6j79EYe/Gwjv37xNi++/BG7H3EwifULeHDKND76cg4/rtfYfeRAvn/9AR577SO++PgjvP3G0DMs+OiVV9hn/HkMylN4++33GLJzb+oqGyju1Qc5tYp3v6/h/NOPo0tJEZH3HiK160Fs/mk9++zTl/d/rOWwUQE+/mY5F50+lvygD4D+xREefOoXjj9iND7FSYGXjFTx0TO38szbX/H1t7/SY8QY9LXfMuXBJ/hy5hcsXJ9iQP8wj512Fl3Gnk7XsMxLd15J9/0O5J9/O4XPflnGihoZf/XX3PnYG3w3exZlVjd27eXjs1cf5pnXPuTTWd8R7DWMHmGLaVfdy+FXTmRIr54cedwh9OhSTMDfxOy56xnaL8QLZT2YfN5BdO/Tj69ef5Ldd+vHZlFKH6uMxTVhRhTW8npsNBceOhTFIyH7wgzrvJm31hSw106lKM29z7cDHXrSqU1r+UHanSuuvo7rrjif7n4ZYZukYhVMnTiVQ6+ZRMBWSSRSaHqrx7EQiLL5fLmpH1ddfS033XA5pWHB2nVr2eWQA8kP+PCFCihJLOH88y/mhdqRHD6wiJhaQPcefhRFQenWg+ryGo46Yl8mXnAuc0on0FP9nuWp/uxSqFNXW0NTQkOSFUaOGcQ731RhmE7d1LO0Dxs/+5KYprO5e2+iv/6IWrmWj+P78MdHU6jveghT7rqTay/Yndue/gafbLEpYTB50nWE/R7URBMfPn03S3qfzf5dPbzw5npOvuoabrxxIocOyiO69E2+qO3OxEk3ceWFJ3Dd5H/iHXYMe/p/45lPvuGGBbtx5K7dSSTi1Pp34o7Jt3PxTr/x6meLeOOBhzjq2knceNPNBBa+yYyfy5FFglWdzuLGk0eTiNSR0jX+dcd4Rh9/ATfdNIldlV94dl49thanIdiXK2+ZwnkHBJi1tp6XH3ycwadNYsqUu5h49gHIiR94claUm26axI1XnscjE59hQ/0fbIp6GVVUgOL1kC9qaKIEb/1CTj5lGuUNZYQDnfAHAyheLz26+6mq78SBY1L87dopXHHp/sx/7SlK9x2HmYpSU1uPZkt0GnUABZU/YJnNFozN+oWzealib6bcPYW7br6cQSUWL067l3/ccAt33nUHvRq/5ZU5FSRiTSR0p2U70tCAYZrYIkbvfU7gnGOG8O17Mxl/6RVMvOlmDtulFxXL5jL5m25cPeFGbjh3NK8++ih1kTgLlTGM6p+H7AtTUhRG6Aneefwddj78aDATdBs4mJDixePrTIHVgOi1H9F3p3HNy2s58fBevPPkdK4YO4BoXQ01DVEsIVEwbByLFy4lqW3fb4yshU4IQaBwCOf1Wc/kmycy9bF/IhQJ27J47d4bWBrcgzFdwk7C2W2QoM9+nLuHzsTrrufm+/5JVLeIJiy6dVOQhHDGfXXfk7fffpPbDknw0IdLMKwYsYRwCq0QFIQD9Nr1MF56/V88ctFuPPOvMo46ojcvTHmCZcsXMu2deSBBKBxm08bydJcliUCPAewfmk993Xx6lo5FUjawef1yRl50BhUbDTp360ZJSScKinYhsmIRmizTvedIivPDKF4Py2c8xLM/WZy1Xy8K84Jcd/2RvDflRibefh+/xyQqfvuVFT++z+Q772DqfU8hVq8lqfgZ99fjePfWu7hv8kkUhoJ4vD5GDt+ZkqICRuw6hrUbl/L70hW8PvlmJt85ha/XVlFdU4fsLWSPMUUU5QXT16+J+T9ovPrIPdxx5528OXsta9fV4JE99C/tQ0FBIflFeWBqrIwF6NGjkJJOJZQUF+HbsJTfln3HrTffxNQHHiUaX0NdUy2GHkTxKSh+P8++O4NT9h3F/sefzgHmJ2wsbyKRTKWvO9g2BAJhDjp3Am+/9SZ7h1awsfRoBjZ8xcNvz+e3N29n7qp68OZhm1EQzS9iFtW15ZT0G0SXkmI6delCYSjG6o0BisJ5lJR0olf37qxcvdaRt1gvzghHSfHTt19vCgu7ccLF43lm2o1MmHQbv2yIUVu+DKn6S2679XbufORfNKkqKc1E69qFIo9T0auxWp65/mLEQZdxzqE7EfRK1NXWtow9FIpC5+LuXH7fs3ww/WaSv87Bc+IkNrx+PZ/OW84TDz9Jo2mh+IJQWUMsw3ddRxr+29O4muO6blDXEEX2htj9xMt48vGHOGqIwT8e/Q4hyxx+0V0cHPydF79Z3b5hLUkISWHvEy7izil38dfh5bz48Xw8iqC+0Rns+duMN/l+TRSPL4gcKCKuy/Tt6mPd2gZUVaNs3rcMGjoA2eMjGAyw5JN7GXXEMXTTm9hYPIrhu+zO0iXLADANncKiAmobohiGSTDcib327sq8d1+h9+CdGeBX+HTRKs47rIROPfOINDSiaxqa+geB/oPwA17PlizTxaNP4dojS3jg2Vnotkzx4AO499EnuG38wTx06UTUop6M2O9Ebrv1dh567HE+/2oqJZbF3E/nsPdFZ/DAIzOJaQaqYVJbW+uMNt68ka4lvegxcAjX3z2VqXdP4+U33+VvB/RB1e02GYqDDBjk47IJtzFlyjTuf2Q6U8f1AskZqEtzbxBJpqvfIhJRqWtopCESw+payqi9juXuqVO5+/7H+OyT59m5czFIKk3RBPGEii08ICyEaVAelykoGE5I1FKXSFDf0MjXaxUG9S3GFwgT8mg8fPfHHHX4bsRqE4zaewQj9h3Bb6vXgzCQZP9WfT7z8zoRra6gsSlGTW0DullAaReNmGmgaRpVdXX069cXvwdisSg1ddVs3liPECDLTg8d2aPQqXQ0Dz3xLDdecSrTH74fOdiF0B7nMXXqVB585FlefXoqBQEvnvpGGlWduroK3rl/AvLYazh77K4UBP0UFHbHXrKI+pRKvH4p6+PdCckKoWAQqWE5366TOXlEIYu/MRi1z950SzWwuK4R0zKgMB9/O+MIDdOkpr7J1cs0TYua+qZtvEPPbbffPrltb4NmDNMinlCxGhdx2/3vkVSjrF+3iV4j96Z/dC760L9ywfEjePLOexh98AHM/X4V++/Vg59/WsuBhx/Mp5/+wPF7Kdw+7XXqmiKU/bGW/vscycBgkg9+jnHCAQMh8hu3PfRPYo1lvPryx5xx8YUcMKyYGa+9SHllBa/ObeCSSy6gW56XVO1ybnmhkfHnHkxRvpd1X31MvRFH6dKfg3fpx7wPXqbHIWcyIGyRF/Lh83nRrAg3TvmE866+jj6JeUx+5w+uP3McBSUFfD9zFpUN9fw442MOP/scRvgqeG+xxEmHjUCt/oUFdaWcc/oxaD9MZ1F4NPNemMLyBou6zSupDezCiacdzeo5n7C+McXmFT/zyVrYLW8FD37UxEM3X0Rw/n0s8w6lceUPLFxWgWw28Pr7v3PSBZcypluMF75YjYiV8eH7nxPuMxxP5UJiA/7CLsUhFn39DtLIszlpbx+vz1qCGqnluy8/Rxk4hi5137NC2Zu/DO1K5bJvqOmxHwd3jfDRR3NYt245r734LmOOu4T4vH+yKumlcsVPvP9rkn1H78S6hV8jDdubEk+MaRMnsqImwvefvklk1KX89ahRhBuXM/3dHyhb8wP1fY/mkmNH4ZVg9dxXiYw+l4OHdUdWNzNj5hIaVy+h966HMEhaw+uzmzjxpEPw+xRAJuz3sPiDx1lREeWrd1+iumhvDh6S5MmZa4hsXMSvGxX+duZhdOU33ppXQeXyecxf08ixZ5zAupnv02nvcfQpSPD6ffewoEanfvMaaowuXHDGWJZ/+Cz1uoeNi+bw7fIk+4zqy7xXnqf/kSdiL/mAa6YvZ48hBWxct5rVlQl2HjaInpve462FFfw68yM67/83DhzdH69k8sZzrzLs2HMYXlqAkpzL3HUWmxti7L/7rnirv2KZPpixewwi0GZok2laROMp8sKBjOnnTcumKZYgLxzYKv18h8xxYZvEY3FUTcfj8xMMBPAIE034yAt6iEWa8CoehOzDtkw8Hgkh+7DUBHmFBSSaGlF1C48vSDgcRK1bxtSr7uXy516mV55MPBpBNWwUf4hwOIhXskklk6Q0E68/SGFeCEkCU0tg4ENRvMjCRE2lSGkm/lCYgF3G38+awiOvP0l+Xij93izQNY1UIkWoqAjZSNKkCvLDQbyyIJlIkFR1vIqfvPwwXmEQVSEv5MdU49iygtfrxTINVM0k5JOIxBIgecjLLyDg86KlEiRTKsgKwVAIn2SQNL2Egwp6Mg7oPHfPRKJ7TOSy/TuB7KOoqADJNmhqimJYNv5gmKDfi7BtNEsmL+AlGWvEEyrGi0kykUAzTHz+IKFQAMnSSVkKeSEFNR5F9gWRsFGTSTTTxucPkh8OYOkqTbEEQvKQl5+H32Pz88cvMH3zrjx7+d5YaoJoIoUkK+QV5ONXvFi6SjKZxLAlQuF8QgFn7ohEIo7P73RZMzWVVCqJKTwEgwG+fvQaFgybwKQjexPwOU9qYZlO63AiheT1U1RUgGzpRONxDAsCwRChoB9LV4nG4kjeAB7JJpwfRlMNFK8Xv8/rbCOeQCATzC8k7PeiJWMkVQ1bUgiFQvgwWPmvG5ihnM8NJwylKZZq6QXiC4QIhYJItkEsGseWvRQWFqJ4ZLB1NEOA7CWgSBi6SjSWRPaHKQjYPHbBAYyZ8B77jejXMop/uyA6iGVZwjRNYVqWsG1b2LYlLNtuWWZbzt9Wy3Ln/53l5lbrmnpKrF80U5xy9yxhCLtlubOuEEI46zq/OfsQQgjbdtZP/yXstMbQdfGvuyeKtxdVC80wW/TOOuljEkII23KOoXlZq3NKi1v217wvu/U2bEuYpiFM02w5jpZtmNteF9uyhG3ExfNTLhePzq7ael/CFpbZ+rzT16xlXbPVtXDTtb7ezbr0Gdp2+tiaj9cWicYa8f4Dl4ufq2Ltn0+r7bRc6uZ7vI3GEFr5N+L6m54RkZQuWt2qtK7N9d3qnLdsq/n6OffJuQdb9tV8fdu55i3nbopUrF7cffnV4tc6UxiGKQzDOa8tmi372XKYzu/N59mssSxb/PHdK+Lat5eKSEJrUW8vOvSk2+4IgWmaGJZNMOBvu/RPI4SNqWkIrw/F43EdObDDERaa7owQCPidJvb/JrZlOsmSZMXx2f4tBMK2SKYMgqFA1pmJ/pPYtoWmaviCoe3yVLJ0FRMvXq8zgmR78t8pdDly/D/Mv1vV5ciR40+SK3Q5cuxgsha6jrx9/l/WZFMJJ7GWK8Lx+V3Zbpq0zg1Hk0WU07T9aRv+pxp3c9wwqY/E2l2xGcMwqW9015imRV1j1NVItCyL2oboNkZiayzbpq4hitmeEZ/Gtm3qG2MYLqnXhRDUR2LoWUaXNzbFs6Zej0TjaFnmJW+KOnZLJoQQRGMJUmr7qddJa2LxJEk1U+p1RxOPJ0mk3DWJRCrr/OaJpOo6vznpUeFRlxTupOcKb53CvT1Sqp51BLqq6TQ2xV0rFE03aMii0Q2Dho7EdBbNlph20WSIaTnzKk5BSKU015OwbNvxTFxElm2TTGmuB2jZIq3JXOhsW5BUtawjkZOqts2JtkYIgarqrqkhhBCkVN21gAshSGnZNKDqRpZKIK1xqwTSQaXrmTUAmmG6VhSkK9OOaDQXjRAC3bCyViZmRzSWRUrVMwZ5a02m9wohnCBPpbSMGtIpP5IdiemUlvF4aB3TLV3ftsXOENNZWy9FO4lV2rL9NB1Kj/9/UkMHdf93NR2Jj/8/arY996yFLkeOHNuXrA0pOXLk2L7kCl2OHDuYXKHLkWMHkyt0OXLsYLIWuo60s2w/TdtftuX/r5psMpH+l42O7i8bO1aTXfR/V9P2lyzmuGGYNEYTrhs3TDNtWmbWmKZFQyS+jV/RGsuyqY9sayS2xrZtGiJRV3/Ntm0am2Ltj2RPI4SgMRp398XSxrebLyaEoCmWyOpnReOJrAZ6LJ5EzTJ3eSyRymqgxxMpklk0iaTqjAHMgBCQTGlO6gYXkqpGPIuBnlJ11znQSRvf0bi7ga7pBk2xpGvFpOsGkWii3UBvZvvHdGaNZVk0RKLb+Mqyy3YxLItYPOm6c8uyicaT7ju3O6iJJbc5wNY420m5F0whiMZTWQxrQTyeylow40kV3dXUdgI4W8FMpDQ0V40T5Frr+eLa0KxxNZqBlKajuhQ60kHuVjBBOJpUZo0QAk0zsvZ+0Q0ja+8X3TCJJ9SMcdasicWTzoVoByGcTAexRMp1LnnDzB7TpunEmWuHj5a4zxyLlmXTFE9it43XNuPrtqF54KAb/xs12WQd0piGqFoyW5w+dk+x+x77iie++F1YQghh1Yo7jh4nFn/znDhwt9Fi1zFjxF77HCienFe2ZV3bFma8Tkz+5xzRlNoyANMyDVG7/HNxysF7id322Fs89tkykVB10VS5TNxw4n5itz32FM9+tVRYwhJfPnutOPSIQ8UbP/0hVMMSyWiVeO6SU0RZtHlQ6LY0D9jc6jdTF7Vr54hTjzxAvL6gQdi2LTQ1IT5/7Hqx5+67if1PukJUNiVF3eovxJlHHygunPCMiCQNYeiaWPzGreLJORXCbDtCVQhh29nvh92Be9YRjfg/pMn6TZfNced/qSabrCMaS4/ywkvvcPEDb/HRuy/xzUOTWFQPyU0r+ab0ZETleg646Da++OprZn7xMeeP7taybuPGBVww/gq+fudZrrjtSSKa81S1LIupD73DhBc/5LMPnmfR/dezcE0lM557kQFXP8MnM95m1bM3MmfDOuZ8V8jb05/k4zdnUxuLsWzuJ9SfcA/dwplvm3NeW5+Y2lTLez/V0rWkmFRKQ8LGqprFe5WD+eDzWdx3Vh/OfmAuHz77DudPeY7Tdk4wv6EJU93IP5eUcPZfurY7QFWSst8PqQP3rCMa/g9pMt+9HMhKHtdMeZC9BvUkr6ATfkNgS4I1S39j35MPQ49H2LxsLk8/+TgvfTgHNZ1vE6CwdCRXHtuNgQGFs885hbDiXGqPx8vk+x9gp0IPFauXUFe0E2FPlKU1KQ4f0pviwhKOHB1g/uIyTLMeXdexgz5SVSv44ucIF+5TStsB36nK+Tx87z3cdddd3HXXXdx7/4OUNW15nfUXdOZv4w6mJC/gvOJLMkrPo3hg4pl0LykiPxwGSyArhtPxWkvi01LMmPoQ+51+KmGvnLWCytFxcoXOBdnrIxjw47ESLHj/fkqOv5hdCuH3XxZzwl55FPcdztBhe3LG6SdQtOFjJn+wpOVrwuOVqI6M4ZY7LyOYSjmJcADZ46GgsIiyJbN5Y8ZsRuy3N0EpgaIUEAgE8HpkigoC1Ff7OPOCfXj8hdf4++n78P0nnzPo8KNY9v0sPp35PQ2pLQVcLhjGaX/9K2effTZnn302fz3zDEqCW1L5yV4fAb8Pb0tpdea0K8gPEdn4G6+99jVTLt+HY66YQMU3b7BeGUXvyBJ+6nMcA4w1fPrJ56yoSmBu74kV/h8lV+hcEaiJJua8eS8v1x/KTecdio8GVpdpDPHK9DngAq654EQG9hvCwaddytwZs2l5vkh+xl58Jn367sY+u/XbskUh0HSdQXsezy2TJ1P4w3QWrq0nlXJad4UAw7DIKyxkyL7Hc/PNtzHU+xt1ebsyIL6AD6t6MjQ1i/d++KPlQ1/CQtd0dF1H0zQ0TcPJ+p8Z2zJpqlrF3bfdz/4TnmRUSYiSrkP4+w23c85Rw3jnkVc478gxPPv+bHYf4mfqNS+TdGmlzdFxcoXOBdvU+OGdx/gkdSBTz92NAj/o675npbQ/suxF2Dqq6gR7sul3ivsNZEuqWgmv14viU5xph9O/WlYTd015hIRp4/F6SSUtFH8XBhXLLGxoIpFS+eaXCLvuMgBfIIhPMrjvocWMHbcvtq4xbHABnXcaTFV5dYuxZ6pxqiorKC8vp7y8nMqqKlo3ltqW2TJpimkYTuFUk0y69l4OvPJO9u2fhyxJSB4vitfDH/O/JPz3qfTvpqMonSju1YPOkZXorVPm5/gfk3WUgWhnaEJbdqgm/eHtxvbS6LHNTDjnHKo7D6O0KIwsCQYXSWze5WpuOrIntYtn8NgrM9GERNIIcuENN7LPoK5tN7MVhq4y+5UpvL2gkZCcRO5zKBP+fgz65gXc98jrKIVh8gYcxC1Xnk7IA5tm3cu80Akct0d/Yht/4Y5pr1Fc4OOA8bdyxPAS50M9PcK99a1snQA1WvszDz3wBj/8OB9/r9Hst/tYLtp/I4ddPZOD/jICjwT+0B5MuOVklOpfuO/5n7js2oso8Auenno9ESOA1f80Jp49hrygkwezmQ7ds5xmKyTbFqLtj80YpkkiqVGYH2q3FYa0SRhPpijMD2fWWBaxuKNpTgfeFiudDbewILxVNtzW2LZNUyxJQV4IT/obqS227RjW+eEgXm978ys4wdkUSxIOBVBcNI2NjSDslumEJUnC5/PhC+bh88oIU6eqth5JksnLyyOcF94m/ZtIm9p+n+JkPxYC29JpisaxhEQ4Lw+fohCPRTENHWQvwXA+Ib/zzEylUngVBa/HQzQaw9A1PIqf/IKCbRpUhHAGTcqytFVqQ0NNkEg5c5GDhGkJAgEvZqvOAb5AmFAwALaJbduYQkJYFopsEU8ZhPML0nOot6xCStWxLIu8cPPcC9uiajqGaZHvotF0A003KMgLtV3Ugq4bpDSDgvxQxspSN0xSKY2C/PA2gd7Mjo7paDxJYX5oq0pQdjUSDYtI1N2ZN0yLxqaEu5Fo2jQ2ZemRYls0NsVdjW/LtmmIxFyNb1vYRNLzx2VCCEEkmsjaIyWeMlECYTp37kznzp0pKSkhP7+AgCIjSyB5vNh4ycvLIz9/2wLXvJ1YPLXF1JYkZK+fouJOlHQqJuj3IQFJzUJWgnQqLmopcADBYBDF63WMb91ysiUX5m9T4MB5eidSKok2prYSCFNYVJw+h054fT4MS2o5r86dO1OQF0Lxyig+H4rfj6rpJFQNfyifTp2KCfi2LnBCOAa6W0oHR2M4pnYGRNpkj8YyG9ZCCDTDpCmWcB4d7SCEU+gisYS7Od6hmDZpbHLvtWKaTry6jRx3eqTE0hPabKEDr5cdGR27/TTg7p9tX037PkozOc2O0gC4x4cQIBDt+oXNdERD+pjc9sV21rSNxayFLkeOHNuXdl5ScuTI8Z8k96RzRWDoGpV/LGVlXR6H7j8UD4BQWfbjInqNGEHd5hWs3lxPuHMvxuwyjLxW32O2nmBVdZIBPTrj9zrvF7Zlsua3eayrTSLLEoq/iN33Go3firNi0UKqkzb9R+zO4J5FVK5exMryCANH7kFppzyEkaJs+RK6jtiTsOL+WtMa29TYtGIxq8vrCZT0ZszIIfhllR+//g7N47RGFu+0D8MKoiz5fSWeor7ssvMAfB5B06bl1IcGMaBLcKtvuhz/c3JPOjeEzYqvX2X89Y9xzd0f09w8YTeu5ca7PqN65btMuP898kvymf/sJP65pLJlVT0RZdOGDTz9/jes3ViNlu4iZpkmbzzxKHUFPejRoyelpT2RTZX570/nvs820aXYZOK106hQ63j5/ukM6NmFiU9+RiKl0fjHAia8V5nd62hDpOJnLr/5deSiTvzwxp08+GUlmr6Kh/+1mB49etCzZ096hmW+e+E2NppdWD/3VdbGUph6iicffQcR9ro2TuT4c+QKnRvCpueY47nnhjPA3NIiWLlmBaFxp+LJG839U65h9IhdOP6Sk/jk8zUtGttMsn75F/zw/mesr6nFSLdg2bZNLKIwcFhvevfpTe9eXfDaKb77fQM3XHwcQ4ftw4ndl/LB/NVEYn0pCCpItY3URBv59NMvuOuSAwiln5rNmIZGMpEgFosRi8VIJJMYrbpsSXIJDz91O/vsMpIjDh/LvM9nYtpR8op70LdPH3r36UuXQi/1NQrduoToUlzCmqYYVd8+SnCvI+gf8ODJ0mCQo+PkCp0bskLnbt0pKcpjiy0oWPbLAk47uj+9ho6if6+ueK0Y37z1Lacd1r9l1UBBMZXfruS2S4aTjHu3sgE0dQ1vPz2dpx65g39MepINtWXEtDBdCvLwKwpDBxezeYPF8J3rePSZ5xl+4Egq5rxJVddj6NEphKHrLd4hgFqzhNdefJ7p06fz7LPTefGlV6iJb7FMinvtzJDSTiiSyi/zFnH0CfsiVZWxcuEspj83nVuuuYQX5tUy4rAxfPXak8xepzPYaGDaJ15OHDsa0zQwLaeL2n+Kjmx6e2n+27ia46ZpkVQ18sPBjE2jpmWRSGoU5GXWWJZFPKmSHw5lNhJtm1g8RUFeMON0snZ6EGt+OJjRHBdCEI07xvfW83dvQaQN61DA72qgxxMpAn4f5ct+5PgJc5k/6xaCwmDaFX/lkmkvURgOE6ndyLvTn2JV3oFMvuxI8tMzkYKNppnYloVqmASDAQI+Bdu2SEab8ATzke0oj5x9Mp3PvIqVc77j8jum0DtfsPCFS3jbdyW3nzoEw7KRtDIeffl7Dt+/P6+/8AGBgJeTbriH/foXIEkgbBtbCGzbRtV0JEkmHApu1Uxtak28ef8trMo/gMvPOZI8RWCYgoKCPOqXfM7YS3/ggxkT6OyXsIwkv719H5UjLqTpu+msqbYp3O0CJpy1K0Fly/VSNR3LsgmHAlt21AZNNzBMizwXja4b6IbparLrhommGeTnZdYYhklK08kPOzP3tsd2j+m8UEaLIlNMu5rjumFS1xht8Vraw0hr3Mxxw3Ryurua46ZFbUPTNkZia5y5DJpcjW/LtqlrjGY1vusbY2hG5g68QggamuJbp2IQNiSWsLZuGIrkwVIjPDv1Tmr6HM0dFx9OXquABNnpvRLwk0hqLakYZNlDKL+QgM+LL5BHUYlE0FeIzxOhuimGbQv++CNG936l+MP5FBeE+Oalxxh54MFENq1m2JmXc+c1+/LN3MUt9yX+x/ucMe5YjjrqKE4YdzynnnEmK2u2jDC3jQSv33QRlYNP4/rxxyELi5RmU1iYj9fjobCgACEkJMVHfn4e8c1LeWjzHozuY/OHNYRp919J09svkUhs2aZI935xm6dACEFK1WhymadApFPTu6VHEGkjvqEp8/wCQqTnMojEXL8/NcOgvgMxnVXTHNMu8WpmiGk5UykFCAb89CvtlvHJAxDw++nfq1vGrlsAfp+PAb2748nw5AFQfAoD+/ZA8W55DWuL1+tlQN8e+H0uGo+H/r27u856Kssy/Xp1JeQyC6wsy/TuVoQWq2dTWTmJeB1/rF3Lqq9nYv7lKGSvwoYPp1DWaU+OHNWFyvIyNlY3brUNSQKPLFPavYTCfKeLk2no3HHZebw/bym/fvkmr6wcwqhdh3Ho6IE8OP1TVqz8kZfXlHL6vt3xemQilb/ya7czOHiX3vTtWcKqdQnqly+nsEvnlgaVUL/jeeXtd/nwww/58MMPefftNxjcZUsfyU0/TWdW/gkctFMx1eXlaEmVYMV7/P2mp1i2djnTH3yAA6/9G52DfrREPTM//5THrjmWvt0GEIlWEisrpyw0uNXQIMfsLi7Mo3uX4pbf2iJJEoX5YXp07dR2UQuSJFGQF6K0e+eMTxVJksgPB+ndo4uLBsKhAH16tj/gtplQIEDfDsR0v17umo7EtE9pP6ZzloELwtJZvXgeKzY2YJgmoXCI7p064es7mmFd/VQu+ZpFG2Pg8eHxeFC6DWPsmL5tN7MVtmVRu2EZi1dvRrclBu26D/06h7H1KMt+/YXqhKD/8NEM7dsdjwT1a39G6zSULoV5WMlGFs2bR8zTiV333IMu+cqWhsytpvXaugdE/erv+X5FPZLswSN7yC/qy5579Gf5gh+pjKh48zrzl91HEQr6MaPlLN+oM3Tnvvgkmw1L57O2OkWvEfswpFsYpb3+Zzn+FLlC54awMQznm4R0jSvLHjyKgkeWsAwd0zSxhVPVyh4vAd/WvfC3RWBbFrpuIJBQfD7n+9S2ME0T0xZ4FV/LoFfTNJFlGVmWEWmNJZyO1xk+j7fBNJyZhZxPAAmP14uieLDS5yZ7lXRnZgnbshA4g20lIbAsA92wW46zg7vM4UKu0OXIsYPJvSvkyLGDyRW6HDl2MLnXyw4ihI1lWY5BLMl4PTKSJGGls03LsoRl2VgC/Erb1lWBbQuEYGt/MT3DqBA2ICF7nJ4ftm1hWjaSJOPxekDYabvF+aaUZcebs4SMR3YfwtQW27awTAskCUn24PXIWKaJLYSzbY8MwkbYAmRPh78bc3Qc1wzPpmURT6Rc/QrLSmfVddU4JqGbl+cY3+4Zc5s1blmgRdr4dhsMK9LGt1t6dpHO8Ow0ogj0ZDXTrjifs879K5dNfoYG1UAIwdLPn2Hyy3OJlC/liVvO4aCrXtjqWgghiMWjLP72Q2bXRDFbHbuRbOCpmy7mnLPP4cwLr2bO8lpMQ+OLp2/hzLPO49y/X8dvZXGa1v3IpGuu4IobbmV5VRxhmWya9ST3vbNkKw+o2c/StAz+o7DYtPALzj/9dM7665k89u48LHRmPHw1115/NQ99tADNtEk2bOLuyy5lfX3mzMykjW/3TNHOHN9umaJJ+8EJlyzQpL0zt0zRtIz4Vl1cuu0f026aLTG9tcbVHNd0g+q6iGv3H90wqa6NuBYowzSpqmvMaiRW1TRuYyS2xrJtqmobXY1vy7aprm1Ez2J819Q3ZQ7OtKa2vglV0xFGioYv7kI/6DJefukVTipdxUNz46R0le9/WMvgQT2pXPgtB11wGsE2+faFqfHGQxO47I6HuefvJ/HErC39M2vXfcEfQy7lsaef5ZKjh/LQ1NdoSi7h+eWlvPzKC0y79AAun/g2C75+m9GnXsEp+/fn9bnlaKko076KcsmJw7fpmROJJogm2jesjWQj7735AaffMo0pU+9l9RvTmF+1np9/6cldE65j+bcLqWxqYuHsGeSfeh0Bu/3t0KpSijTF2y5qQQhBIqnREIm1XdSCEIJUSqO+0c34dgz0uoamzJp0D5na+ojjlGdA0wxq6pvcJE5M10Uy7otWMe1WuRumRVVt4zaVu6s5Hgr46d+7W8auWwABv48BfbohS5k/D/0+hYF93I1ERVEY1K9nxpwlAF6Pl0F9ezq5RjLgkT0M6NPD1RyXJJl+vboRCmY2xyVZpm9pV/JCAQw9wZczFjB6QF+C/gA7DRvDD9/+RCoaYbPSg32Hdmeno8fTq3MB2GKrZnXZ6+O0C//OAV0HUuw9irMPGtCyrOtOJ3PfuaMozguS75dRenSC3z6ny/DBhIMBSgcNJm/tp0hymOqKSqyUSr/eCj89ewUHn3Quhem0Ec3Yhsp3T1/Ceef8lWOPPZZjjz2OSQ98jJEe4aAm17CxoYDR/fvSp2cXDhvsZcEKDYk1JFIpzE752Jt/4ZNffJy7d196dHY3vjsV5tG9i7vxXVQQpmc3d01BfohePdJJltqh2Rzv09PFHMcxx/uWds2oAQgF/fTr1TV7TPfuhvRvxrRPceK1bUxn3mqLL+UqadG4nGcHNc53kdsF26Ga9HeaJEkI28bQbPIKCpAkCb/fh1FeS6R+Eb7CnhTnh/F4FfzKllR7WzYko/g6c/rkO3no9r3wyVu+97y+AD4PVC2byUtf/sHtlx2B19Do3LkAWZLw+v1g1lC07yXs0SmO3nUUY4vLeEc/laHGAu64/XZe/XotupH+rvQoHH3V07z44os8//zzPP/880y46FA86QCzTJ1gIIjP78Pr8RDwKzQ0+vn7zRcxf9FSrjtjXz6b+TOHnLofHzw+lTvufZ7NUce3aw/nvm5zxlvxZ2LIjf+GxiU8/oRm2zhz33sOACTJQ36RTCLuvEqpqQS+vj2o/2UOpQMHE241gqA9QiV9GDWkJ7132Xfrwae2ycZfP+W+V+Zx7rUTGdazCCm/iPoa53XM1lRUT2+KiovZ88Aj2X/Xfsx84S3OP2VPXn7/d87+x/lU/utWEunvKiEs1i/6ipkzZzJr1ixmzZrJgt83tbz6y54ghpVMNwgJYnGdkpJieg4Zw9HHHEuw4nNEj90prl/E+gEnMX6vKO99vdRpVMmx3cgVug7g8QU56KRj+H7REhoiDSz89RdOPXoEP3y1lgEDeqNIFloqSSyWwDRUotEYprXla1mWZTxeb7p1cst24zUrufK2GZw2/iIGFvmcD+6hx1C1eCEVdRFW/bYI/36nU5IfxOuR2LDoG8r3+QcDuheRkCVKwkX4fEmnNTJN9yF7sscee7T8GzZoy6Qm/uAAhnTV+GVDOZFILV9uLmS/kSUofj+SFeep9+IccdTueCWLTkUK4ZIiYk3xjE+6HP9DWs3gkyMTtikS0Xrx5A3niMPGHiEuuvMV0Vi3WZxx9v1ifUNMmHqTePnS48TBB+8nBg/eRYwde4qYXWWKdmaX2op1s+8Ve+75F3HAwYeJI444Upx76RTRFI+Ln965R4wbO1Ycc9bVYnNtk9AMWxiJdeKhSVNERX1M6JoqfnzlTnH8CePElY99LRJJtWWbzVNltf7XssxURc3aBeKiEw8Shx5+tHj184VCt2xhCyE2vHOV+HzROpHQdBGpWCGuOPZgcfypl4t562PCame6pxz/c3I+XQcRtoWupUikdPyhPIJeMKxmb81CU1VSLa2hEnkFBSjedr7xWqGnEqS0LQNSvYqfUDgElkYslkT2BcgLBvB4ZCxDxxYgeX14JRvT0IglVAKhPPw+p99kR7BMA01NoVuCYCgPf3o4kqqqeL1evF5vWqNi2BDOz6fNQPUc/ya5Qpcjxw5GditxlmWRSKqunoZl2WlNZpFt245p2QFNWyOxNbbteEPZzPFEUnX1T4QQJFLZNcmU5ppNWghBUm1OV94+Ij2Q081bdDQ6ehaNqrlrSPtQbnOg0yqNuRu6brhOtUzaz8qmMQyTlMtc6qQ9r2wmu2laWU32Zk3mCErHdOrfj2nLzq7JFNOy20qqZlBZ0+i6Yd0wqKhucDXHdcOkvKreNcgN06Kssm4bI7E1luVo3ALYsm3Kq+uzjgqvrGl0DRghBFW1jaSyaGrqIq7BIATU1Duz8WRCAPWNUeJuKcqB+kiMaJYU5Q1NMaJZRnNHogkas5jaTfFkVk0snqS+0d34jiVS1DU0tV3UgkhXkrX1LsZ3ugKsrssciyI933pVbaNz0TOgagaV1Zm3Q7pSqqhpcNUYzTHt8gDIFNOur5dCCKdPnpTZj+ioRqRTULf1LJrZsRpHJ7lM3/tnNEhk/KYS0NLk7uZpNdeGrhohQPz7muZr5OZXbU+NLYRrZoH/hqZj8doRjVucta9xLXQ5cuTY/mSuEnLkyPEfIVfocuTYweQKXY4cO5hcocuRYweTK3Q5cuxgspjjNilVc7M9sO1mTWaRbduOadkBTVsjsTUi7de4jS4XaTPazT9xNE5K8Ex0VKNq+jY+TGtEenrfbCZ7c/rxTLRoXDxKWqUod0M3zKwawzCzGuiGmV1jmhaqy2BhWjSZ/VDSI76zmexWWpM5gppjWneNaWt7x3Qbjey2d1XTKauqd92wqhlsrqjbZsOt0Q2TTRW1rgFsmBYby2tcA9hMa9wCxrJtNlXUZR0VXlZV53qjhRBUVNdnNb4raxpdUw0IAVV1je5zcwM1dRHXubkB6hqiWdOY10diRKLupnZjJJZ1NHdjNJ7V+G6KJanNYnxH40lq6iNtF7Ug0qkzqmozG9YibaBXuhjWAkimNCqq652LnoGUplNWVZdxO6R79WyuzKLR0zHtUrm3xHSbytR1AhEhnIQ6boP1tmjcTcIOaYQzX/S/qxHtGJKt+TMaJxnQv6NhS+IhV41zgzNqaDbZ3c1o500hu0bgbiLb6XP7dzXN975tWonW/Dc0/82YzpnjOXLsYDJXCTly5PiPkCt0OXLsYHKvl+0hbGwk5792Xtdt227/e1AIbEtHNWWCfu+2y9tDCAxDxzBMhCTh8XjxKTJq8xAVIUD24vVISMLGFOD1+vApHoRloFsSiteT8Vuwo2Q8J0BNJlECAddvtxwdJ1fo2kFtLOOdlRKn79EDxSO1NHI4ASlY/MNnDN/rSGcW1/THsiTJSMKgZvb9TPpxKE/fdELLqGw3hKHy4v0TWJbqRifRyDpzNA9P3JO3Xv6EhG1jqjE++a6eh+8/jc9emU33wSHswady0cF9qFr4Hg//0I3JF/9lq+mVm4+pGUlyyi6ShCw557PlnGRA0PjbO0R7HknfrvnpTaTXF4JHbriIU+5+nJ7+AJ4MBTNHx/FMnjx5ctsf/98mwedP38/TX69l5+FD6OyJ8f2cr/j191VIRT2gchm33jYJK9CH/gNKWfHzbL7/eTHlEZM+PUtIrp3DjLWdOPGgnbeaRDETeryMnyrDXPS3M9lrZH+eu/MuDrrwWg4/YC/23mcfiuu/wL/nOYwU65hn78x5x/2Fpz9bzEl7deWJh99g/DXnUBz0t8p/KTCNchaurmXtz3NYWhajtEBn5qxvqDPD9OxSgNqwni8+n82SFesIde2Fkihj2qRLWR3tzNDhO9G4Zj5fzl1AWSP06tWFbz94k9KhfZn/7c9EKKC0c2Eu3fq/gas5bts2qma42R6tNJlFjkZ31Yi00ezm97VoshjoqmZkNdA13cjgsQToNbwYX+kYuvs1pt97M4v03uw9qhc3nnMVDZ27QTzAfvuOQV3+L16dV8PIkUNY8vwNfLqyqu3GMFMx7r58HEcccSRHH300xx53PI/P+LXlHHz5vbnkzCOIV/zOqy88Q6eTrqF3npNT0Y6u5baHKzhurwEU9eyOWP0ry5bPY2S/7ix770mk/S+gW8C3VYYxw9Cor1/EFWffhG/wKBY8fyNXPPAvBgzqwwtTH+b36ko+fHQqnt7DGN25kouvvQ/JH8Rfq7HrHruTWPwuV9/7LkN2Hsmmj+9n5qJyRHQlL82oYrfh/Xn6xrtYVO9MZ2yalqtnStrU1nV3jWVZWU12y7Kza2zb1Z9lB8e0bTvx2lbjao6nVJ3NlbXbrNQaVTfYVFHjWlh0w2RDWY2rOa4bJus3V29jJLbGNC02lFW7pky3bJuN5TWoLjdICMGmitqWecC3Rsbn8xIIhdi44Wd+r+jMqfsOpbjLQMZ2r+THtTqSrBAO+skbdjJnj90NWVLY//j9Wbx+WxNYUgKccs2jPPfCS7z11lu8+cYb/P2oUS2vaJLsQZZlNKmQ4SNHUDl3DlHDuZa/z3mLXv+4m65FIQp7783fLjiKku67Mv6Qzry2soDT+lZw5rjjOO2Wd2hIOTe3rrGJxqjK4KPPZLd+fdhl1E7secZF9CktpVOoiU0NXv5y4W30DnkIDTqSYusPZEXB4/UR9Mss/PF3Bh9+DsVFxRx++VSO3KUHUngAl11yKN1796VfNw/1jU5PjEgskdX4jsaSVNVtPS10a0R6dLmToaDtUgchIJ5MUe7SUUMAyaSa1fhOqjpl2WJac2LaTaMbJhvLazJU3A6GabK+rHqbnkZyy8TV7RAK+hnQu3u7jQnNBP0+BvbpkXHkNOkU1IP79XQ1LX2KlyH9S7dJQd0ar9fD4H6lWdKqywzqmy2tusSAPt0JtjvnuITHI+NVvPTt2Rmfx4PX50dRvAR8gpRuObPpyBKbZz/LG+99warVq1m2trLd3jTCMvjh3UeZNvUuJk2axM0338yHP65pmYzeMnRMw6b/wIHstt/hHCHmsqo8BdjM/fJnLj+8kIDPi+L3s9NOQxjQuytz7p/GQSecwtwvvmPSi69yYf5bLFtXC5JEt87FdO4URvH78fl8KF4v+WE/fp8PCZtUdBMf3HsX85as5LfFS6iJmkiSM9OrxyNhWhayLNOrR1f69OrhTHcsKwR9Cv6AzzHd040unQrz6ZEtrXphHqXdStouakFKz0veu0fnjHEmSVCQF6JPqXta9bxwkH69uqX/ap9w0E//bDEdcGI6075Ix/Sgvj1dG5d8ipch/baNabeygiQ5Aei28/+tGrcTkyQJjyxnbPFTvCGijTUITx96F9byw6oyIo0VfFObz5hB3Qj7NGqjUX756iu6DhrBiME9aaiqJR5TSWc4b0GWPYy7YAITJ05kwoQJXH/D9Rw+pm9LWFhaGVdffwcLVldQu3k18xOldMr3gl3GkrUBunk9eGUJSZLxyhKpisUs3uk09h/aDdky0GyJRFJFSoeaLDvntuUapVtg038a9WV880cDe+0+hhLiJKMqUQMCQYtINM7AYf1Y99NXVFRV8uvMN1m0oRHRqvGk9RWTZedauyGn74cbzffMDUmS8LrMG8BW8dF2yRb+TAz9pzS5hpR28EohFs18A7PbcE45bDSfvPIkn8/5leMun8ABO5XiS63jjc/mc+yF41n4yVvMW69x6l/H8f0bz9N/+AhSgb7st2s/54J7vARDeRQWFjr/CgoI+n0tN0JYXgYUp3jjpVf44fdyzpl8J7v3LcKr1jB/TZSDD94XX3q+O2Gn+GXGmxx0zCn0KArStcTHq089x7qup3LyoTsTSr8BWFaUzbVh9hnZk8bKDfgH7E6/MGzasIl+e47loB61PPf2TEI7H8rueZuZuyLM8WP78PYHsxlx3MWMkhby5GufUCH144B9dyVW/gc77bkfeR6JTes20W/07vQsaO8tIUdHyFkG7SAsZ041WfHhlcHQNUxbwh8I4lc8aKkEppDxymCaJkLy4PV4sA0N2efHFn/CpwMMXUXTdAQyvvQ+ECZJ1cLvV1peYYRtYlk2QlYcK8MySCRTyEoAv09JTxQisCwLXbcIBv3oagpZ8eORBIbpTGopYaFqJh6fH6+tYcl+ZNvAQkLxesG2UHUD2aMQCgXRU2mfThLohjNZpdIBOyRH++QKXY4cOxj3F+kcOXJsd3KFLkeOHUxWc1w3zIz+CWkD0NFkFgnRQY3eMY2bJ9i8r2wGuqPJ7LEIITAM09WHEUJgmM53ViY6rrFcNaR9yvZsidZ0SGNZrn4oacO6rb/UFsuyO6bJYqBb6ThzozkW3fgzGpcQ6nhMdzBe22qymuMby91NQlXX2VBW7arRdIP1m6tcg0o3TP7YVOl6E03LYt3mKnQX49uybTaUVaPp7RnfDkIINpXXuA7/FwI2VdZlHTleVlnvOgG9ACqqG4hlmAectKaqtoGmmNPToz2EEFTXRYhE3TW1DU00RtxHjtc3RqlvjLZd1IIQgoZIPGs69Eg0Tk2duzneFEs4qc4zINLp2SurGzKGohAQS6Qoz2J8J1Iamyvcje+UqrMpW0xrzTHddskWNN1gfVmVa6WsGybrNldtE9NZR45btt3G99kaIQS2badH4rppOjDKdjtqJJepeTusEQLJdcR3s8aZ+LE9OqoRwrHLM5mtIj0CvUMaQUbfSwDCdteQfiJk16RHjmfR2MJ29djsdAz9u5ot8erJ6NV1NKY7ouloLLbV5Fovc+TYwWSuonLkyPEfIVfocuTYweQKXY4cO5hcocuRYweTK3Q5cuxgXAudEAIz3Uk2E1s0mUX/DU02A900rawGuml1VJPZqxFCYFm2q4a0iezm+dCscfE6SfuU20Njd1BjdkiT2XulWePiz5K2HrJq0vfVjT8X022XbOHPxGJbjeuc48mUltX4VjWddZurXDWabvDHpkrXm2gYJms2VmxjJLbGtCzWbqxEcxn+b9k26zZXoWVJmb6hrJqUy+TyQsCm8lr3ucIFbK6oI55w0QBlVXVZ5wqvqGmgKYvxXVXXSGOWlOk1dZGsKdPrGqLUNbob3/WNsayjwhub4lRnMb4j0QSV1Q1tF7Ug0qnXy6vrMwa5EBBLJLOmOk8kVTZmMcedmHY3x1OqzvrN7nHvxHR2c3ztxsptKoLs5rhltzsQrxnRQSNxe2ls2xla4mpYd8T47rDG3dS2bWfO8cyGdQc1wpkrPJPR3FGN889NQ3YDPa2xhXA1o227I5q0qe2SEaBDGiGwLRuPJ7Px3RFNh2O6I5oOxGt7mpw5niPHDqb9qi5Hjhz/Mf4/u24cTHOIboMAAAAASUVORK5CYII=;" vertex="1" parent="1">
          <mxGeometry x="549.5" y="960" width="221" height="124" as="geometry" />
        </mxCell>
        <mxCell id="ccl-ZEUmA6qkgp3fX_jC-126" value="Show list of companies" style="shape=parallelogram;perimeter=parallelogramPerimeter;whiteSpace=wrap;html=1;fixedSize=1;" vertex="1" parent="1">
          <mxGeometry x="830" y="840" width="200" height="105" as="geometry" />
        </mxCell>
      </root>
    </mxGraphModel>
  </diagram>
</mxfile>
